<?xml version="1.0" encoding="utf-8"?>
<!-- Generator: Adobe Illustrator 16.0.0, SVG Export Plug-In . SVG Version: 6.00 Build 0)  -->
<!DOCTYPE svg PUBLIC "-//W3C//DTD SVG 1.1//EN" "http://www.w3.org/Graphics/SVG/1.1/DTD/svg11.dtd">
<svg version="1.1" id="Layer_1" xmlns="http://www.w3.org/2000/svg" xmlns:xlink="http://www.w3.org/1999/xlink" x="0px" y="0px"
	 width="459px" height="447px" viewBox="0 0 459 447" enable-background="new 0 0 459 447" xml:space="preserve">
<style>
 	.animate-box {
	    animation-name: spin;
	    animation-duration: 5000ms;
	    animation-iteration-count: infinite;
	    animation-timing-function: linear;
	    transform-origin: 16px 272px;
	}
	.animate-box.animate-1 {
	    transform-origin: 434px 150px;
	    animation-name: spin-rotate;
	}
	.animate-box.animate-2 {
	    transform-origin: 58px 106px;
	}
	#_x31__cc .animate-box {
		animation-duration: 10000ms;
	    transform-origin: 382px 228px;
	}
 	@keyframes spin {
	    from {
	        transform:rotate(0deg);
	    }
	    to {
	        transform:rotate(360deg);
	    }
	}
	@keyframes spin-rotate {
	    from {
	        transform:rotate(0deg);
	    }
	    to {
	        transform:rotate(-360deg);
	    }
	}
	.content-line {
	    opacity: 0;
	    -webkit-animation: hideshow 6s 2s ease infinite;
	    animation: hideshow 6s 2s ease infinite;
	}
	.content-line.content-line2 {
	    -webkit-animation: hideshow 6s 3s ease infinite;
	    animation: hideshow 6s 3s ease infinite;
	}
	.content-line.content-line3 {
	    -webkit-animation: hideshow 6s 4s ease infinite;
	    animation: hideshow 6s 4s ease infinite;
	}
	@keyframes hideshow {
		0% {
		    opacity: 0.5;
		}

		10% {
		    opacity: 1;
		}
		15% {
		    opacity: 1;
		}
		100% {
		    opacity: 0;
		}
	}
	.box-content-line {
		opacity: 0;
	    -webkit-animation: hideshow 6s 2s ease infinite;
	    animation: hideshow 6s 2s ease infinite;
	}
	.box-content-line.box-line2 {
		animation: changecolor 6s 3s ease infinite;
	    -webkit-animation: changecolor 6s 3s ease infinite;
	}
	@keyframes changecolor {
		0% {
		    opacity: 0.5;
		}

		10% {
		    opacity: 1;
		}
		15% {
		    opacity: 1;
		}
		100% {
		    opacity: 0;
		}
	}
	#sun{
	    -webkit-animation: hideshow 6s 2s ease infinite;
	    animation: sun 6s 2s ease infinite;
	}
	@keyframes sun {
		0% {
		    opacity: 0.3;
		}

		10% {
		    opacity: 0.6;
		}
		15% {
		    opacity: 0.9;
		}
		100% {
		    opacity: 0;
		}
	}
	.graph-box {
	    animation: graphbox 2s ease-in-out infinite;
	    transform-origin: 100px 50px;
	}
	.graph-box.graph-box2 {
	    animation: graphbox 3s ease-in-out infinite;
	    transform-origin: 100px 48px;
	}
	.graph-box.graph-box3 {
	    animation: graphbox 3s ease-in-out infinite;
	    transform-origin: 100px 50px;
	}
	@keyframes graphbox{
		50% {
		    transform: scaleY(0.3);
		}
	}
	.graph-opacity{
		-webkit-animation: graph-opacity 6s 2s ease infinite;
	    animation: graph-opacity 6s 2s ease infinite;
	}
	@keyframes graph-opacity {
		0% {
		    opacity: 0;
		}

		10% {
		    opacity: 0.6;
		}
		15% {
		    opacity: 0.9;
		}
		100% {
		    opacity: 0;
		}
	}
	.wifi-animation{
		opacity:0;
	    -o-animation:wifianimation 3s infinite;
	    -moz-animation:wifianimation 3s infinite;
	    -webkit-animation:wifianimation 3s infinite;
	    animation:wifianimation 3s infinite;
	    animation-delay:200ms;
	}
	.wifi-animation.wifi-animation3{
	    animation-delay:600ms;
	}
	@keyframes wifianimation {
	  0% { opacity: 0.4 }
	  5% { opactiy: 1 }
	  6% { opactiy: 0.4 }
	  100% { opactiy: 0.4; }
	}
	<!-- .man-animation {
		animation-name: man-spin;
	    animation-duration: 5000ms;
	    animation-iteration-count: infinite;
	    animation-timing-function: linear;
	    transform-origin: 105px 360px;
	}
 	@keyframes man-spin {
	    from {
	        transform:rotate(0deg);
	    }
	    to {
	        transform:rotate(360deg);
	    }
	} -->
</style>
<g id="Layer_1_1_" display="none">
</g>
<g id="panel">
	<g id="_x32_">
		<polyline fill="none" stroke="#B1B5C4" stroke-miterlimit="10" points="365.3,60.89 365.027,255.186 340.818,269.784 		"/>
		<polygon fill="#DADEE4" points="382.033,35.961 382.033,71.037 350.176,52.879 350.176,17.448 351.999,18.501 		"/>
		<path fill="#BFC6D1" d="M384.283,34.366v35.005c0,0-0.299,1.538-2.25,1.666V35.961l-30.034-17.46l-1.823-1.053
			c-0.471-1.88,1.823-1.766,1.823-1.766L384.283,34.366z"/>
		<g id="graph">
			<rect class="graph-box graph-box1" x="358.691" y="32.705" fill="#1E18EB" width="2.201" height="16.733"/>
			<rect class="graph-box graph-box2" x="364.232" y="41.071" fill="#944ABF" width="2.18" height="11.67"/>
			<rect class="graph-box graph-box3" x="370.951" y="49.378" fill="#D33143" width="2.181" height="6.728"/>
		</g>
	</g>
	<g id="_x31__cc">
		<polyline fill="none" stroke="#B1B5C4" stroke-miterlimit="10" points="394.494,339.124 409.447,330.342 409.447,241.527 
			403.417,239.459 		"/>
		<polygon fill="#944ABF" points="401.073,216.737 401.073,261.98 360.785,239.465 360.785,193.325 		"/>
		<path fill="#BE6BEF" d="M404.448,214.273v45.729c0,0-1.951,2.007-3.375,1.979v-45.244l-40.288-23.412
			c-0.498-1.154,3.376-2.45,3.376-2.45L404.448,214.273z"/>
		<path class="animate-box" fill="#FFFFFF" d="M380.164,223.327c0,0,5.251,2.848,3.916-1.914c0,0-4.965-4.743-9.791-1.646
			c-3.145,2.017-1.805,8.342-0.578,10.058c1.559,2.181,6.02,6.313,8.885,6.319c5,0.013,8.827-4.629,4.911-9.035
			c0,0-3.562-1.646-3.382,1.604c0,0,1.335,4.051-1.959,3.738c0,0-3.248-0.445-5.563-4.495
			C376.604,227.955,373.292,220.7,380.164,223.327z"/>
		<path class="animate-box" fill="#FFFFFF" d="M379.186,216.918c0,0,4.289-1.335,1.744-4.094c0,0-12.96-4.451-14.295,6.586
			c0,0-1.246,13.262,9.969,20.738c0,0,6.676,5.875,12.996,3.648c0,0,7.742-4.271,6.318-9.167c0,0-3.025-3.917-4.984-0.444
			c0,0-0.355,6.318-3.648,5.963c-1.439-0.078-5.247,1.179-10.858-5.252c-0.169-0.188-8.765-6.765-5.073-16.259
			C371.354,218.637,373.934,213.269,379.186,216.918z"/>
	</g>
	<g id="_x33_">
		<path fill="none" stroke="#B1B5C4" stroke-miterlimit="10" d="M197.426,221.636l14.426-8.815c0,0,4.799-1.694-1.695-4.357
			l-20.863-12.746L168.943,183.3c0,0-2.663-0.712-2.549-7.434l-0.003-52.522"/>
		<polygon fill="#9DC358" points="175.424,104.389 175.424,129.069 166.865,124.313 166.395,124.056 151.926,116.01 151.926,90.86 
			153.279,91.644 		"/>
		<path fill="#9DC358" d="M176.962,128.414c0,0-0.441,0.854-1.538,0.655v-24.68l-22.145-12.746l-1.353-0.784
			c-0.285-1.167,1.338-1.253,1.338-1.253l23.697,13.739L176.962,128.414L176.962,128.414z"/>
		<g id="graph_1_" class="graph-opacity">
			<circle fill="#FFFFFF" cx="155.541" cy="105.156" r="1.038"/>
			<circle fill="#FFFFFF" cx="159.962" cy="110.823" r="1.098"/>
			<circle fill="#FFFFFF" cx="164.427" cy="109.517" r="1.083"/>
			<circle fill="#FFFFFF" cx="167.824" cy="114.116" r="1.186"/>
			<circle fill="#FFFFFF" cx="172.304" cy="111.92" r="1.098"/>
			<polyline fill="none" stroke="#FFFFFF" stroke-miterlimit="10" points="155.541,105.156 159.962,110.823 164.427,109.517 
				167.824,114.116 172.304,111.92 			"/>
		</g>
	</g>
</g>
<g id="stend">
	<path fill="#C8C8D6" d="M405.175,342.685v9.016c0,0-108.987,53.147-121.903,54.586c0,0-102.037,22.558-180.719-10.553
		c0,0-44.176-28.069-34.064-80.32c-6.523,43.521,33.352,72.487,33.352,72.487c76.546,32.755,177.302,11.749,177.302,11.749
		C302.283,395.376,405.175,342.685,405.175,342.685z"/>
	<path fill="#E0E0F3" d="M405.175,342.685c0,0-102.892,52.691-126.032,56.965c0,0-100.755,21.006-177.302-11.749
		c0,0-39.875-28.967-33.352-72.487c0.014-0.041,0.014-0.099,0.028-0.142c1.51-9.941,5.44-20.664,12.845-31.959
		c0,0,24.039-26.431,61.664-50.611c0,0,27.884-19.467,32.398-20.848c0,0,104.813,33.523,128.952,22.6
		c2.122-0.954,31.729,25.634,31.729,25.634c8.303,1.183,27.643,34.192,27.643,34.192c25.447,43.563,38.493,47.922,40.971,48.362
		L405.175,342.685z"/>
</g>
<g id="mobile">
	<path fill="none" d="M295.434,76.106c-0.841,0-1.51,0.684-1.51,1.523c0,0.826,0.669,1.51,1.51,1.51c0.825,0,1.51-0.684,1.51-1.51
		C296.941,76.79,296.259,76.106,295.434,76.106z M292.499,74.142L269.857,61.21c-0.201-0.114-0.43-0.171-0.643-0.171
		c-0.441,0-0.869,0.228-1.111,0.641c-0.342,0.612-0.127,1.396,0.484,1.737l22.645,12.946c0.611,0.341,1.395,0.128,1.736-0.485
		C293.325,75.267,293.111,74.498,292.499,74.142z M286.177,260.029l-12.461-7.291c-1.282-0.74-2.649-1.111-3.944-1.111
		c-2.021,0-3.859,0.883-4.813,2.507c-1.552,2.679-0.185,6.394,3.091,8.304l12.461,7.289c3.274,1.91,7.191,1.282,8.76-1.395
		C290.833,265.669,289.452,261.938,286.177,260.029z M265.341,58.49c-0.823,0-1.509,0.669-1.509,1.51
		c0,0.84,0.686,1.509,1.509,1.509c0.843,0,1.524-0.669,1.524-1.509S266.184,58.49,265.341,58.49z"/>
	<path fill="#B0B0BB" d="M332.9,85.164L232.616,28.428c0,0-2.293-1.196-3.831-0.784c-0.74,0.199-1.31,0.755-1.382,1.979
		l-0.085,213.374l108.874,62.177v0.014l0.016-0.014l0.07-215.268C336.275,89.906,337.614,87.77,332.9,85.164z M295.434,76.106
		c0.825,0,1.51,0.684,1.51,1.523c0,0.826-0.685,1.51-1.51,1.51c-0.841,0-1.51-0.684-1.51-1.51
		C293.924,76.79,294.593,76.106,295.434,76.106z M268.104,61.681c0.242-0.413,0.67-0.641,1.111-0.641
		c0.213,0,0.439,0.057,0.643,0.171l22.642,12.931c0.612,0.356,0.826,1.125,0.472,1.737c-0.344,0.613-1.125,0.826-1.738,0.485
		l-22.644-12.946C267.977,63.076,267.764,62.292,268.104,61.681z M265.341,58.49c0.843,0,1.524,0.669,1.524,1.51
		c0,0.84-0.684,1.509-1.524,1.509c-0.823,0-1.509-0.669-1.509-1.509S264.518,58.49,265.341,58.49z M289.268,268.332
		c-1.566,2.677-5.483,3.305-8.759,1.395l-12.461-7.289c-3.274-1.91-4.644-5.625-3.091-8.304c0.954-1.624,2.792-2.507,4.813-2.507
		c1.297,0,2.664,0.371,3.945,1.111l12.461,7.291C289.452,261.938,290.833,265.669,289.268,268.332z M323.175,271.55l-88.722-50.242
		V54.659l6.123,3.433l87.925,49.387l0.556,167.404L323.175,271.55z"/>
	<path fill="none" d="M266.865,60c0,0.84-0.684,1.509-1.524,1.509c-0.823,0-1.509-0.669-1.509-1.509s0.686-1.51,1.509-1.51
		C266.184,58.49,266.865,59.16,266.865,60z"/>
	<path fill="none" d="M292.971,75.878c-0.344,0.613-1.125,0.826-1.738,0.485l-22.644-12.946c-0.612-0.341-0.825-1.125-0.483-1.737
		c0.242-0.413,0.668-0.641,1.11-0.641c0.214,0,0.44,0.057,0.642,0.171L292.5,74.141C293.111,74.498,293.325,75.267,292.971,75.878z"
		/>
	<path fill="none" d="M296.941,77.63c0,0.826-0.684,1.51-1.508,1.51c-0.842,0-1.511-0.684-1.511-1.51
		c0-0.84,0.669-1.523,1.511-1.523C296.259,76.106,296.941,76.79,296.941,77.63z"/>
	<path fill="#CCCED1" d="M347.471,294.977c-0.057,1.78-0.697,3.434-0.697,3.434l-10.566,6.765l0.07-215.268
		c0,0,1.338-2.136-3.375-4.742L232.616,28.428c0,0-2.293-1.196-3.831-0.784l-0.028-0.085c0,0,6.152-4.856,8.373-6.366
		c0.101-0.071,0.199-0.128,0.3-0.185c2.221-1.153,5.313,0.712,5.313,0.712l100.399,56.679c4.129,0.826,4.143,5.74,4.143,5.811
		L347.471,294.977z"/>
	<g id="speaker">
		<path fill="#FFFFFF" d="M292.971,75.878c-0.344,0.613-1.125,0.826-1.738,0.485l-22.644-12.946
			c-0.612-0.341-0.825-1.125-0.483-1.737c0.242-0.413,0.668-0.641,1.11-0.641c0.214,0,0.44,0.057,0.642,0.171L292.5,74.141
			C293.111,74.498,293.325,75.267,292.971,75.878z"/>
		<path fill="#FFFFFF" d="M296.941,77.63c0,0.826-0.684,1.51-1.508,1.51c-0.842,0-1.511-0.684-1.511-1.51
			c0-0.84,0.669-1.523,1.511-1.523C296.259,76.106,296.941,76.79,296.941,77.63z"/>
		<path fill="#FFFFFF" d="M266.865,60c0,0.84-0.684,1.509-1.524,1.509c-0.823,0-1.509-0.669-1.509-1.509s0.686-1.51,1.509-1.51
			C266.184,58.49,266.865,59.16,266.865,60z"/>
	</g>
	
		<linearGradient id="SVGID_1_" gradientUnits="userSpaceOnUse" x1="166.4077" y1="172.6836" x2="239.2095" y2="298.7799" gradientTransform="matrix(1 0 0 -1 79.04 400.3398)">
		<stop  offset="0" style="stop-color:#FFFFFF"/>
		<stop  offset="0.7688" style="stop-color:#D3D2DA"/>
	</linearGradient>
	<polygon fill="url(#SVGID_1_)" points="329.057,274.883 323.175,271.55 234.453,221.308 234.453,54.659 240.576,58.092 
		328.501,107.479 	"/>
	<path fill="#FFFFFF" d="M289.268,268.332c-1.566,2.677-5.483,3.305-8.759,1.395l-12.461-7.289c-3.274-1.91-4.644-5.625-3.091-8.304
		c0.954-1.624,2.792-2.507,4.813-2.507c1.297,0,2.664,0.371,3.945,1.111l12.461,7.291
		C289.452,261.938,290.833,265.669,289.268,268.332z"/>
</g>
<g id="mobile_box">
	<g id="round_box_2">
		<polygon fill="#F6F4F7" points="225.976,107.708 182.996,80.888 208.648,66.18 252.796,92.991 		"/>
		<polygon class="content-line content-line3" fill="#D8D3DD" points="243.261,96.916 224.222,83.671 225.895,82.607 245.137,95.887 		"/>
		<polygon class="content-line content-line2" fill="#D8D3DD" points="237.453,100.103 223.836,90.611 225.338,89.427 239.352,99.061 		"/>
		<polygon class="content-line content-line1" fill="#D8D3DD" points="231.082,103.573 222.069,97.505 223.419,96.213 232.941,102.578 		"/>
		
			<radialGradient id="SVGID_2_" cx="128.7188" cy="320.0459" r="9.1921" gradientTransform="matrix(1 0 0 -1 79.04 400.3398)" gradientUnits="userSpaceOnUse">
			<stop  offset="0" style="stop-color:#FFFFFF"/>
			<stop  offset="1" style="stop-color:#5E6768"/>
		</radialGradient>
		<path fill="url(#SVGID_2_)" d="M218.709,81.069c-0.272,3.834-5.395,6.597-11.442,6.169c-6.047-0.428-10.73-3.885-10.459-7.72
			c0.272-3.835,5.395-6.598,11.442-6.169C214.297,73.777,218.98,77.234,218.709,81.069z"/>
	</g>
	<g id="round_box_1">
		<polygon fill="#F6F4F7" points="275.398,136.292 232.419,109.473 258.07,94.765 302.218,121.576 		"/>
		<polygon class="content-line content-line1" fill="#D8D3DD" points="280.486,132.158 261.45,118.913 263.123,117.85 282.365,131.129 		"/>
		<polygon class="content-line content-line2" fill="#D8D3DD" points="286.875,128.688 273.26,119.196 274.762,118.012 288.775,127.646 		"/>
		<polygon class="content-line content-line3" fill="#D8D3DD" points="292.701,125.501 283.688,119.433 285.038,118.141 294.559,124.506 		"/>
		
			<radialGradient id="SVGID_3_" cx="178.1416" cy="291.4609" r="9.1919" gradientTransform="matrix(1 0 0 -1 79.04 400.3398)" gradientUnits="userSpaceOnUse">
			<stop  offset="0" style="stop-color:#FFFFFF"/>
			<stop  offset="1" style="stop-color:#5E6768"/>
		</radialGradient>
		<path fill="url(#SVGID_3_)" d="M268.131,109.654c-0.271,3.834-5.393,6.597-11.439,6.169c-6.049-0.428-10.73-3.885-10.459-7.72
			c0.271-3.835,5.395-6.598,11.44-6.169C263.719,102.363,268.402,105.819,268.131,109.654z"/>
	</g>
	<g id="box_1">
		<polygon fill="#CACDE6" points="314.193,193.984 220.441,141.055 220.531,119.604 314.193,173.097 		"/>
		
			<linearGradient id="SVGID_4_" gradientUnits="userSpaceOnUse" x1="215.8228" y1="216.915" x2="234.7941" y2="227.8682" gradientTransform="matrix(1 0 0 -1 79.04 400.3398)">
			<stop  offset="0.3118" style="stop-color:#B1B5C4"/>
			<stop  offset="0.9032" style="stop-color:#FFFFFF"/>
		</linearGradient>
		<polygon fill="url(#SVGID_4_)" points="314.193,193.984 294.559,182.899 294.559,161.883 314.193,173.097 		"/>
		<path class="box-content-line box-line1" fill="#0CAEC1" d="M287.389,166.173c-0.496,0.871-1.604,1.172-2.473,0.675l-57.054-32.617
			c-0.869-0.498-1.171-1.606-0.674-2.476l0,0c0.497-0.869,1.605-1.17,2.474-0.673l57.053,32.618
			C287.583,164.197,287.887,165.305,287.389,166.173L287.389,166.173z"/>
		<path class="box-content-line box-line2" fill="#0CAEC1" d="M271.007,165.171c-0.368,0.646-1.192,0.871-1.838,0.502l-42.413-24.248
			c-0.647-0.37-0.871-1.193-0.501-1.84l0,0c0.369-0.646,1.193-0.87,1.838-0.501l42.414,24.248
			C271.15,163.701,271.377,164.525,271.007,165.171L271.007,165.171z"/>
	</g>
	<g id="box_2">
		<polygon fill="#CACDE6" points="304.059,220.104 210.305,167.174 210.394,145.724 304.059,199.216 		"/>
		
			<linearGradient id="SVGID_5_" gradientUnits="userSpaceOnUse" x1="205.3818" y1="196.2871" x2="225.0186" y2="196.2871" gradientTransform="matrix(1 0 0 -1 79.04 400.3398)">
			<stop  offset="0.3118" style="stop-color:#B1B5C4"/>
			<stop  offset="0.9032" style="stop-color:#FFFFFF"/>
		</linearGradient>
		<polygon fill="url(#SVGID_5_)" points="304.059,220.104 284.422,209.018 284.422,188.002 304.059,199.216 		"/>
		<path fill="#0CAEC1" d="M277.251,192.292c-0.496,0.871-1.604,1.172-2.474,0.675l-57.052-32.617
			c-0.869-0.498-1.171-1.605-0.675-2.476l0,0c0.498-0.869,1.606-1.17,2.475-0.673l57.053,32.618
			C277.445,190.316,277.749,191.424,277.251,192.292L277.251,192.292z"/>
		<path fill="#0CAEC1" d="M260.87,191.29c-0.368,0.646-1.193,0.871-1.839,0.502l-42.412-24.248c-0.646-0.37-0.871-1.193-0.501-1.84
			l0,0c0.37-0.646,1.193-0.87,1.839-0.5l42.413,24.248C261.016,189.821,261.24,190.644,260.87,191.29L260.87,191.29z"/>
	</g>
	<g id="box_3">
		<polygon fill="#CACDE6" points="293.096,243.957 199.343,191.028 199.432,169.577 293.096,223.07 		"/>
		
			<linearGradient id="SVGID_6_" gradientUnits="userSpaceOnUse" x1="194.4199" y1="172.4336" x2="214.0557" y2="172.4336" gradientTransform="matrix(1 0 0 -1 79.04 400.3398)">
			<stop  offset="0.3118" style="stop-color:#B1B5C4"/>
			<stop  offset="0.9032" style="stop-color:#FFFFFF"/>
		</linearGradient>
		<polygon fill="url(#SVGID_6_)" points="293.096,243.957 273.46,232.873 273.46,211.856 293.096,223.07 		"/>
		<path class="box-content-line box-line1" fill="#0CAEC1" d="M266.29,216.146c-0.497,0.871-1.604,1.172-2.474,0.675l-57.053-32.618
			c-0.869-0.498-1.171-1.605-0.674-2.476l0,0c0.497-0.869,1.605-1.17,2.474-0.673l57.053,32.617
			C266.484,214.17,266.787,215.278,266.29,216.146L266.29,216.146z"/>
		<path class="box-content-line box-line2" fill="#0CAEC1" d="M249.908,215.144c-0.368,0.647-1.193,0.871-1.84,0.502l-42.411-24.248c-0.646-0.37-0.87-1.193-0.501-1.84
			l0,0c0.369-0.646,1.193-0.87,1.838-0.5l42.413,24.248C250.053,213.674,250.277,214.498,249.908,215.144L249.908,215.144z"/>
	</g>
</g>
<g id="wifi">
	<path class="wifi-animation wifi-animation3" fill="#4E8FCC" d="M306.175,317.095l-15.659-0.46c-16.814-44.289-72.537-46.357-81.19-46.415l-1.136-8.731
		C296.865,265.407,306.175,317.095,306.175,317.095z"/>
	<path fill="#4E8FCC" d="M237.722,315.066l-22.674-0.667l-1.715-13.236C233.813,302.23,237.32,313.439,237.722,315.066z"/>
	<path class="wifi-animation wifi-animation2" fill="#4E8FCC" d="M272.193,316.085l-17.167-0.499c-2.939-19.088-32.531-24.086-43.104-25.271l-1.235-9.532
		C227.648,281.751,262.943,287.278,272.193,316.085z"/>
</g>
<g id="extra_box">
	<g id="_x31_" class="animate-box animate-1">
		<polygon fill="#0CAEC1" points="443.625,141.943 434.127,147.582 424.642,142.356 434.127,137.372 		"/>
		<polygon fill="#20BFD2" points="443.625,141.943 443.625,153.749 434.127,159.146 434.127,147.582 		"/>
		<polygon fill="#4BDBEC" points="434.127,147.582 434.127,159.146 424.642,154.232 424.642,142.356 		"/>
	</g>
	<g id="_x32__1_" class="animate-box animate-2">
		<polygon fill="#B8B8C1" points="63.061,102.779 57.479,106.093 51.904,103.022 57.479,100.092 		"/>
		<polygon fill="#DFE4EE" points="63.061,102.779 63.061,109.717 57.479,112.89 57.479,106.093 		"/>
		<polygon fill="#D6D6DF" points="57.479,106.093 57.479,112.89 51.904,110.002 51.904,103.022 		"/>
	</g>
	<g id="_x33__1_" class="animate-box">
		<polygon fill="#F4AF47" points="23.956,264.672 14.97,270.454 6.254,265.07 14.97,259.546 		"/>
		<polygon fill="#DCA34C" points="23.956,264.672 23.956,274.798 15.098,280.38 14.97,270.454 		"/>
		<polygon fill="#F5C275" points="15.098,280.38 6.254,275.339 6.254,265.07 14.97,270.454 		"/>
	</g>
	<g id="sun">
		<path fill="#CBD3C9" d="M99.148,59.516c-1.182-1.424-2.876-2.193-5.055-2.193c-3.446,0-13.771,10.182-13.97,16.277
			c-0.086,2.521-0.157,4.43,0.271,5.825c-2.079-1.325-2.236-3.831-2.108-7.861c0.2-6.095,8.839-15.599,14.654-16.192
			C95.944,55.065,98.081,56.867,99.148,59.516z"/>
		
			<linearGradient id="SVGID_7_" gradientUnits="userSpaceOnUse" x1="19.377" y1="325.4844" x2="4.0667" y2="334.3237" gradientTransform="matrix(1 0 0 -1 79.04 400.3398)">
			<stop  offset="0.0968" style="stop-color:#FFFFFF"/>
			<stop  offset="0.6882" style="stop-color:#E1EDDF"/>
		</linearGradient>
		<path fill="url(#SVGID_7_)" d="M101.128,66.323c0,6.224-6.323,16.292-12.902,16.292c-5.227,0-7.163-0.925-7.833-3.189
			c-0.427-1.396-0.356-3.304-0.271-5.825c0.199-6.095,9.123-16.277,13.97-16.277c2.179,0,3.874,0.769,5.055,2.193
			C100.445,61.054,101.128,63.375,101.128,66.323z"/>
	</g>
</g>
<g id="box_panel">
	<polygon class="content-line content-line1" id="_x31__1_" fill="#E6F7F9" points="128.72,161.467 70.866,194.756 70.866,182.117 128.72,150.074 	"/>
	<polygon class="content-line content-line2" id="_x32__2_" fill="#E6F7F9" points="128.72,183.808 70.866,217.096 70.866,204.458 128.72,172.415 	"/>
	<polygon class="content-line content-line3" id="_x33__2_" fill="#E6F7F9" points="128.72,204.875 70.866,238.163 70.866,226.264 128.72,193.482 	"/>
</g>
<g id="man_1">
	<path id="hair" fill="#27282D" d="M131.12,196.002c-2.307,1.068-4.358-1.965-4.358-1.965c1.253,0.1,1.424-1.681,1.424-1.681
		c-0.1-4.543-2.849,0-2.849,0c-0.085,0.797-1.338,0.527-1.338,0.527c0.356-1.153-0.626-4.714-0.626-4.714
		c0.712-2.677-1.51-2.492-1.51-2.492c-0.669-0.228-0.883-0.584-0.826-0.997c0.143-1.253,2.706-3.004,2.706-3.004
		c6.85-2.592,11.335,5.953,11.335,5.953C136.546,190.533,131.12,196.002,131.12,196.002z"/>
	<path id="face" fill="#FACFBB" d="M131.12,196.002v3.373l-4.628,2.529l-0.056-3.321c0,0-4.573-0.317-4.345-1.513l-0.256-4.272
		c0,0-0.992,0.334-1.424,0c0,0-0.797,0.057,0.613-1.367c0,0,2.35-4.928,0.84-5.754c0,0,2.222-0.185,1.51,2.492
		c0,0,0.982,3.561,0.626,4.714c0,0,1.253,0.271,1.338-0.527c0,0,2.749-4.543,2.849,0c0,0-0.171,1.78-1.424,1.681
		C126.762,194.037,128.813,197.07,131.12,196.002z"/>
	<polygon fill="#E69BAE" points="139.401,271.282 139.401,273.602 141.74,273.605 141.538,270.898 	"/>
	<path id="hand" fill="#FDCFCA" d="M104.632,211.156l-4.869-7.856c0,0-3.086-3.441-4.45-2.254c0,0,1.424,3.441,1.78,3.619
		c0,0,0.83-0.415,0.89-0.178l4.255,7.797L104.632,211.156z"/>
	<path fill="#2D3343" d="M142.157,270.811c0,0-2.335,0.912-3.532,0.67c0,0-5.678-20.383-4.098-27.726c0,0-0.853-4.169-3.607-1.938
		c0,0-3.802,13.173-2.976,16.49c0,0,1.31,18.983,1.908,19.34c0,0-2.051,3.332-4.714,0.84c0,0-4.686-26.916-0.812-41.77
		c10.382,2.479,14.512-3.232,15.409-4.757l0.199-0.354C139.935,231.604,138.825,265.512,142.157,270.811z"/>
	<path id="tshirt" fill="#D2D0D6" d="M146.742,216.985c0,0-6.765-1.509-7.604-5.383l0.399,10.111l0.398,10.098
		c0,0-0.057,0.127-0.185,0.354h-0.014c-0.897,1.524-5.027,7.233-15.409,4.757c-2.35-19.382-1.523-20.237-1.367-21.162
		c0,0-0.114-3.546-2.777-3.176l-10.866,5.226c0,0-2.848,2.222-4.984-1.153l-2.535-4.159c0,0,2.72-1.338,3.247-1.509
		c0.37-0.128,0.484-0.171,0.512-0.171c-0.057,0.157-0.512,1.424,0.712,2.094c0,0,0.912,0.556,1.98-0.156l6.65-2.991
		c0,0,7.705-3.789,9.1-4.301c0,0,1.809-3.176,2.492-3.561l4.899-2.677c0,0,5.881-1.054,8.103,4.144c0,0,6.893,6.764,7.078,6.993
		c0.17,0.213,0.17,0.213,0.17,0.213S150.658,215.476,146.742,216.985z"/>
	<path fill="#B5B3BC" d="M146.742,216.907c0,0-7.063,1.254-7.206,4.729l-0.937-11.651
		C139.44,213.858,146.742,216.907,146.742,216.907z"/>
	<polygon fill="#E7B5BD" points="128.372,279.068 128.72,281.448 126.184,281.092 125.926,279.068 	"/>
	<path fill="#29313C" d="M141.74,273.605c0,0,2.816,2.682,0.417,3.394c0,0-8.037-0.781-8.808-1.696c0,0-2.934-1.092-0.873-2.22
		c0,0,6.688,0.933,6.926,0.519L141.74,273.605z"/>
	<path fill="#29313C" d="M128.72,281.448c0,0,2.136,2.79,0,3.204c0,0-5.304-0.521-7.405-1.303c0,0-4.722-2.703-1.74-2.813
		c0,0,6.326,0.792,6.608,0.556L128.72,281.448z"/>
</g>
<g id="Layer_10">
	<path id="face_1_" fill="#E2BB9A" d="M295.893,339.351c0,0-0.1-1.438-1.059-1.681c0,0-1.12-0.521-1.618,0.089
		c0,0-1.772,1.45-0.28,2.879c0,0,0.836,0.425,1.402,0.382c0,0,0.316,3.964-0.65,4.855c0,0,0.474,2.857,1.668,2.726
		c0.174-0.02,2.371,0.4,2.506-1.893c0,0,0.013-1.381,0.035-1.542c0,0,0.555,0.133,1.156,0.214c0.502,0.068,1.063,0.044,1.323,0.007
		c0.172-0.025,2.472-0.035,3.724-3.367c0,0,0.926-3.24,0.479-3.694c0,0-3.331,0.86-6.706-2.248c0,0-0.896,0.427-1.331,2.354
		C296.542,338.431,296.534,339.107,295.893,339.351z"/>
	<circle id="Earrings_2_" fill="#FFFFFF" cx="294.189" cy="340.188" r="0.309"/>
	<path id="teeth_2_" fill="#FFFFFF" d="M299.855,342.213c0,0,1.129,2.619,2.896,0.473c0,0-2.548-0.545-2.986-0.62L299.855,342.213z"
		/>
	<path id="hair_1_" fill="#282C3B" d="M297.852,336.12c0,0,2.986,2.978,6.731,2.242c0,0,0.497,8.638-6.688,6.804v1.375
		c0,0,3.517-0.229,3.898,4.7c0,0,3.881-0.552,4.491-2.731c0,0,0.707-3.001-0.745-5.98c0,0-0.078-3.402,0-4.053
		c0,0,1.605-0.663,1.729-2.8c0.01-0.189-0.051-0.258-0.051-0.258s-1.148-4.663-9.502-5.04c0,0-4.74,0.13-6.002,3.646
		c0,0-2.273,3.02-4.548,3.955c0,0-3.967,1.537-4.769,5.025c0,0-2.189,6.207,3.638,7.922c0.012,0.001,0.021,0.005,0.032,0.011
		l0.428,0.084c0,0-0.29-2.465,2.189-4.021c0.021-0.014,0.041-0.027,0.063-0.04c2.548-1.554,4.738-1.045,4.918-1.045
		c0,0,0.885-0.847,0.847-4.975c0,0-2.55-0.01-1.796-2.256c0,0,0.506-1.077,1.624-0.953c0,0,1.318,0.333,1.425,1.958
		c0,0,0.506-0.26,0.668-0.89C296.688,337.817,297.126,336.354,297.852,336.12z"/>
	<g id="t-shirt_4_">
		<path id="t-shirt_5_" fill="#ff9800" d="M297.861,346.521c0,0,3.477-0.318,3.933,4.72c0.431,4.768-1.584,12.723-1.584,12.723
			s-1.91,4.854-2.446,5.121l-10.548,0.191c0,0-2.202-9.793-0.721-18.255c0,0-0.218-5.671,7.171-5.105c0,0,0.591,2.622,1.605,2.688
			c0,0,2.41,0.383,2.584-1.829L297.861,346.521z"/>
		<path id="_x31__10_" fill="#d88202" d="M295.675,355.998c0,0-1.708-5.691-2.444-6.813c0,0-3.211-3.466-5.225,0.866
			c0,0-0.535,1.478,0.865,7.313l0.152,0.509l6.369-1.783L295.675,355.998z"/>
		<path id="_x32__10_" fill="#d88202" d="M304.261,356.444c0,0-1.536-3.378-2.436-5.203c0,0-0.112,4.837-0.246,5.331
			c-0.009,0.024,0.051,0.036,0.051,0.036L304.261,356.444z"/>
	</g>
	<g id="hand_2_">
		<path id="_x32__9_" fill="#D7AC88" d="M302.898,356.529l1.924,7.129c0,0,9.425,5.581,9.503,5.585l-0.649,1.958h-2.473
			l-11.107-6.952c0,0,1.473-6.937,1.465-7.641c0-0.025,0.217,0,0.217,0L302.898,356.529z"/>
		<path id="_x31__9_" fill="#E2BB9A" d="M294.577,356.371c0,0,1.239,6.343,1.819,7.261c0.033,0.054,0.059,0.143,0.15,0.225
			c0.1,0.088,0.35,0.152,0.869,0.173c0,0,9.802,6.041,10.414,6.041c0,0,1.82,1.626-2.445,2.053l-11.465-4.808
			c0,0-0.938-0.512-3.968-9.325l-0.138-0.381L294.577,356.371z"/>
	</g>
	<g id="lag_2_">
		<path id="_x32_shosh_2_" fill="#29313C" d="M337.025,403.357l1.336-0.559c0.617,0.202,4.98-1.606,4.98-1.606
			c0.908,0.457,0.701,1.231,0.701,1.231l-7.846,6.786c-1.122-0.454-1.516-1.805-1.666-2.857c-0.07-0.488,0.344,0.869-0.451-0.938
			c-0.048-0.105,0.438-0.364,0.438-0.364c0.799,0.414,1.817-0.234,1.817-0.234L337.025,403.357z"/>
		<path id="_x32_soks_2_" fill="#F5CAA3" d="M337.033,402.665c0.175,0.487,0.217,1.706-0.768,2.187
			c-1.74,0.851-1.947-0.035-2.188-0.491C334.078,404.359,336.95,402.701,337.033,402.665z"/>
		<path id="_x32__8_" fill="#2E3245" d="M297.611,368.954l0.56,0.053l7.271,3.05c2.639,0.066,5.656-0.54,6.776,0.532
			c0.351,0.336,6.753,8.732,7.906,11.729l17.397,17.877c0,0-2.311,2.395-3.646,2.146c0,0-16.386-16.098-16.422-16.137
			c-8.068-8.664-14.95-11.681-19.777-18.338L297.611,368.954z"/>
		<path id="_x31_shosh_2_" fill="#29313C" d="M311.465,412.683c0,0-2.395,1.83-1.281,4.257l1.534,0.756l2.106,1.246l3.656,1.023
			c0,0,4.53-0.149,2.934-1.825c0,0-2.686-1.534-3.324-2.848c0,0-1.425-1.884-1.443-1.898c0,0-1.188,0.805-1.479,0.784
			c0,0-2.364,0.206-2.255-1.623L311.465,412.683z"/>
		<path id="_x31_soks_2_" fill="#E9C09C" d="M315.665,413.214c-0.206,0.476-1.169,1.396-2.515,0.928
			c-1.902-0.664-1.104-1.754-0.965-2.252C312.186,411.89,315.58,413.185,315.665,413.214z"/>
		<path id="_x31__8_" fill="#3C415B" d="M286.999,369.28c0,0-5.578,9.032,1.416,12.93c0,0,8.919,4.712,24.015,5.134l-0.738,25.433
			c0,0,3.802,0.665,3.955,0.617c0,0,1.299-21.116,1.453-21.422c0,0,0-7.299-0.644-8.729c0,0,0.687-2.09-3.085-4.104l-15.898-10.151
			L286.999,369.28z"/>
	</g>
	<path fill="#29313C" d="M341.201,405.567"/>
</g>
<g id="laptop">
	<polygon fill="#BEC2D8" stroke="#BEC2D8" stroke-linejoin="round" stroke-miterlimit="10" points="301.493,371.049 314.8,371.049 
		318.602,361.203 305.875,361.22 305.104,361.22 	"/>
	<path fill="#C5CEE2" d="M300.432,370.357c-0.127,0.315,0.06,0.667,0.418,0.783l0,0c0.359,0.119,0.756-0.04,0.885-0.354l3.607-8.854
		c0.126-0.313-0.061-0.663-0.421-0.783l0,0c-0.358-0.118-0.755,0.041-0.883,0.354L300.432,370.357z"/>
	<path fill="#ECF1F6" d="M308.874,366.491c0,0.7,0.435,1.271,0.998,1.271c0.565,0,1.369-0.569,1.369-1.271s-0.554-1.271-1.118-1.271
		C309.557,365.22,308.874,365.79,308.874,366.491z"/>
	<path fill="#B1B5CC" d="M314.629,371.499c-0.111,0.165-0.172,0.335-0.48,0.501h-21.102c-0.279,0-0.509-0.215-0.509-0.476l0,0
		c0-0.265,0.229-0.477,0.509-0.477l10.68,0.106l10.42-0.017C314.427,371.14,314.629,371.234,314.629,371.499L314.629,371.499z"/>
</g>
<g id="man_2">
	<g>
		<path fill="#9DC358" d="M187.922,364.603c-0.669,1.188-1.442,0.235-2.044-0.005c-4.785-1.893-7.708-5.714-10.149-10.004
			c-0.491-0.86-0.922-1.761-1.785-2.587c0,3.802,0,7.602,0,11.404c-0.578,0.564-1.318,0.661-2.071,0.674
			c-3.321,0.051-6.64,0.051-9.958,0c-0.806-0.018-1.645-0.039-2.219-0.771c-0.712-3.465-0.137-6.992-0.472-10.843
			c-1.574,2.431-2.708,4.767-4.328,6.796c-1.989,2.495-4.47,4.278-7.317,5.6c-0.645,0.299-1.367,0.699-2.094,0.104
			c-0.927-1.191-0.939-2.395-0.037-3.604c0.312-1.381,1.707-1.404,2.605-2.011c4.214-2.842,6.094-7.231,7.992-11.64
			c1.242-2.887,2.788-5.46,6.546-5.222c0.083,0.052,0.163,0.104,0.244,0.153c0.456,0.448,0.605,1.048,0.749,1.634
			c0.289,1.171,0.985,1.885,2.182,2.094c0.88,0.53,1.091,1.372,0.936,2.287c-0.303,1.807-0.163,3.644-0.439,5.454
			c-0.1,0.656-0.248,1.354,0.321,1.907c0.163,0.16,0.393,0.176,0.557,0.047c0.652-0.519,0.381-1.225,0.326-1.876
			c-0.137-1.61-0.654-3.184-0.468-4.827c0.395-1.332,0.535-2.789,2.068-3.499c0.612-0.282,0.545-1.054,0.528-1.646
			c-0.024-0.807-0.75-0.588-1.23-0.7c-1.239-0.306-1.24-0.306-0.932-1.319c1.135-0.258,2.262-0.464,3.296,0.308
			c4.153,0.159,5.051,0.964,6.726,4.788c1.433,3.273,2.804,6.624,5.216,9.371c0.853,0.974,1.748,1.855,2.865,2.559
			c0.978,0.607,2.285,1.003,2.432,2.475C188.597,362.678,188.62,363.646,187.922,364.603z"/>
		<path fill="#E4E2E1" d="M104.302,340.938c0.396-2.262-1.255-4.27-0.814-6.537c0.857-0.403,1.193-1.227,1.601-1.991
			c0.067-0.339,0.165-0.718,0.545-0.777c2.793-0.448,5.418-1.701,8.307-1.694c0.894,0.006,1.253,0.243,1.335,1.278
			c0.116,1.512,0.545,3.01,0.949,4.479c0.214,0.784,0.907,1.033,1.712,1.21c1.912,0.411,3.785,1.011,5.691,1.457
			c1.285,0.301,1.675,1.076,1.352,2.245c-1.219,4.412-2.509,8.803-3.691,13.226c-0.374,1.411-1.004,1.901-2.428,1.378
			c-2.785-1.029-5.813-1.144-8.591-2.265c-1.353-0.546-1.918-0.992-0.936-2.481c0.638-0.977,1.802-2.019,0.992-3.494
			c-0.816-1.493-0.654-3.242-1.254-4.788c0.373-0.395,1.294-0.771,0.033-1.215c0.327-1.424,1.793-0.941,2.599-1.562
			c0.405-0.242,0.38-0.681,0.47-1.067c0.049-0.316,0.56-0.649-0.05-0.939c-0.2-0.224-0.236-0.459-0.051-0.704
			c0.093-0.093,0.207-0.161,0.328-0.223c0.047-0.025,0.078-0.084,0.116-0.127c-1.985,0.782-4.236,0.595-6.133,1.67
			c-0.088,0.249-0.022,0.477,0.079,0.702c0.211,0.406,0.646,0.63,0.824,1.058c0.027,0.199-0.008,0.385-0.095,0.565
			c-0.299,0.414-0.633,0.788-1.131,0.969C105.414,341.481,104.792,341.513,104.302,340.938z"/>
		<path fill="#361812" d="M159.696,363.313c4.749,0.032,9.499,0.066,14.248,0.099c-0.264,1.652,0.365,2.186,2.079,2.079
			c4.092-0.252,8.172,0.076,12.216,0.773c0.032,0.659-0.483,0.771-0.934,0.854c-4.483,0.804-8.753,2.354-13.111,3.608
			c-1.081,0.31-2.216,0.77-3.42,0.565c-2.617-0.665-5.231-0.488-7.841,0.033c-1.139,0.383-2.125-0.147-3.138-0.52
			c-3.188-1.171-6.528-1.882-9.677-3.159c-0.89-0.359-2.062-0.461-2.209-1.779c3.001-0.455,6.032-0.551,9.042-0.353
			C158.752,365.629,159.677,365.175,159.696,363.313z"/>
		<path fill="#603815" d="M156.858,328.691c0.008-2.031-0.109-4.076,0.77-5.997c0.258-0.563,0.088-0.832-0.564-0.935
			c-1.656-0.262-3.279-0.655-3.529-2.73c-0.276-2.288,1.005-3.793,2.681-5.301c0.226,0.641,0.39,1.105,0.626,1.775
			c0.767-0.984,1.402-1.802,2.284-2.938c0.155,2.468,1.487,2.841,3.221,2.612c2.427-0.327,4.865-0.46,7.312-0.318
			c4.247,0.245,6.134,2.156,6.226,6.346c0.023,1.14,0.789,2.002,0.965,3.065c0.373,1.814,0.133,3.649,0.173,5.473
			c-1.3,0.568-1.23-0.66-1.466-1.244c-0.533-1.316-0.7-2.754-1.044-4.134c-0.327-1.305-0.978-1.946-2.402-1.923
			c-3.392,0.058-6.783,0.052-10.174,0.004c-1.579-0.025-2.313,0.678-2.668,2.159c-0.377,1.574-0.471,3.234-1.248,4.706
			c-0.381,0.481-0.771,0.378-1.166,0.013C156.71,329.114,156.71,328.904,156.858,328.691z"/>
		<path fill="#638999" d="M193.22,393.063c-17.497,2.154-35.019,2.14-53.114,0.263C144.166,390.404,187.381,390.253,193.22,393.063z
			"/>
		<path fill="#442017" d="M171.048,370.733c0.8,0.727,1.667-0.088,2.186-0.272c4.913-1.744,9.903-3.153,15.005-4.197
			c1.936,0.565,2.504,1.667,2.398,4.404c-0.067,1.758-0.833,2.679-2.642,2.977c-4.424,0.729-8.89,1.033-13.333,1.537
			c-0.517,0.058-1.109-0.142-1.492,0.412c-1.149,0.748-2.49,0.494-3.704,0.495c-1.262,0.001-1.567-1.187-1.716-2.318
			c-0.289-2.244-0.315-2.237,1.896-2.238c0.063,0,0.152-0.028,0.178-0.067c0.027-0.046-0.005-0.13-0.012-0.203
			C170.054,370.673,170.717,371.102,171.048,370.733z"/>
		<path fill="#8F4D21" d="M124.207,296.14c1.11,1.362,2.241,2.708,3.33,4.083c0.864,1.091,0.78,2.11-0.346,2.989
			c-3.733,2.917-7.47,5.832-11.196,8.759c-1.22,0.961-2.266,0.706-3.156-0.436c-0.994-1.274-1.94-2.588-2.907-3.886
			c0.674-1.72,1.589-2.264,3.102-1.851c0.482,0.396,0.951,0.036,1.424-0.038c-0.206-0.214-0.533-0.259-0.718-0.51
			c-0.411-0.791,0.112-1.299,0.611-1.724c1.632-1.394,3.316-2.725,5.086-3.944c0.574-0.397,1.179-0.7,1.813-0.086
			c0.032,0.034,0.068,0.089,0.125,0.146c0.401,0.416,0.612,1.466,1.418,0.786c0.766-0.647-0.257-1.081-0.501-1.606
			C121.866,297.168,122.854,296.524,124.207,296.14z"/>
		<path fill="#432017" d="M147.909,365.864c1.616,1.301,3.634,1.717,5.521,2.313c2.667,0.844,5.404,1.476,7.946,2.689
			c0.506,0.243,0.907-0.086,1.359-0.095c0.411,0.278,1.254-0.064,1.227,0.848c-0.918,1.762-1.794,3.565-4.225,3.489
			c-4.863-0.229-9.692-0.805-14.496-1.595c-1.188-0.193-1.694-0.896-1.937-2.001C142.48,367.779,143.792,366.148,147.909,365.864z"
			/>
		<path fill="#AB5E2A" d="M124.207,296.14c-0.236,1.011-2.02,1.052-1.561,2.496c-0.074,1.069-0.649,1.403-1.645,1.12
			c-2.013-0.05-3.023,1.665-4.344,2.688c-0.921,0.716-2.542,1.014-2.558,2.672c-0.076,0.765-0.346,1.312-1.263,1.15
			c-1.441-0.528-1.951,0.903-2.911,1.385c-1.153-1.328-2.485-2.526-3.151-4.223c-0.397-2.107,1.625-2.549,2.563-3.738
			c0.268-0.273,0.585-0.486,0.895-0.708c1.979-1.415,3.99-2.783,5.708-4.524c0.475,0.136,0.806-0.026,0.996-0.486
			c0.801,0.226,1.217-0.396,1.698-0.813c1.399-1.209,2.615-1.117,3.699,0.414C122.945,294.437,123.583,295.284,124.207,296.14z"/>
		<path fill="#D8B99E" d="M156.936,329.028c0.204,0.212,0.344,0.517,0.718,0.465c1.146,0.869,1.365,2.28,1.992,3.449
			c0.51,0.947,1.075,1.369,2.252,1.075c3.31-0.833,6.665-0.927,9.956,0.091c0.963,0.298,1.689-0.212,2.536-0.296
			c1.389,0.698,0.453,1.765,0.43,2.684c-0.887,1.93-2.559,3.137-4.115,4.446c-1.088,1.036-6.172,1.811-7.406,1.163
			c-0.491-0.261-0.425-0.812-0.737-1.147c-2.713-2.069-4.364-4.764-4.885-8.147C156.644,331.705,155.661,330.587,156.936,329.028z"
			/>
		<path fill="#F8AD41" d="M143.819,323.028c0.296,1.196-0.404,1.704-1.385,2.061c-3.198,1.161-6.39,2.333-9.578,3.514
			c-1.249,0.461-1.709-0.624-1.841-1.289c-0.401-2.078-1.515-3.89-1.982-5.922c-0.155-0.319-0.131-0.628,0.076-0.912
			c0.846-0.465,1.668-0.066,2.498,0.064c1.53,0.407,2.995,1.102,4.625,1.068c0.781,0.085,1.359-0.101,1.376-1.033
			c0.075-0.353,0.206-0.678,0.401-0.975c0.272-0.342,0.453-0.737,0.62-1.143c0.145-0.339,0.31-0.664,0.526-0.965
			c0.384-0.457,0.816-0.825,1.469-0.774c1.229,0.253,0.985,1.523,1.538,2.241l0.092-0.04
			C143.313,320.088,143.345,321.642,143.819,323.028z"/>
		<path fill="#361A12" d="M159.734,375.109c2.06-0.447,2.74-2.466,4.163-3.645c1.371-0.944,4.676-0.927,5.983,0.033
			c0.317,0.045,0.632,0.088,0.947,0.126c0.001,0.098,0.001,0.194,0.001,0.292c-0.938,0-1.876,0-2.762,0
			c-0.333,0.424,0.046,0.505,0.192,0.654c0.859,0.882-0.608,2.999,1.235,3.043c1.189,0.028,2.443-0.156,3.675-0.02
			c0.039,0.056,0.085,0.109,0.116,0.167c0.51,0.955,2.364,1.66,1.511,2.734c-0.955,1.199-2.411-0.065-3.332-0.729
			c-3.161-2.279-6.186-2.285-9.266,0.043c-0.16,0.118-0.354,0.202-0.545,0.27c-0.891,0.314-1.896,1.421-2.703,0.399
			c-0.748-0.943,0.435-1.688,1.033-2.349C160.489,375.563,160.601,375.261,159.734,375.109z"/>
		<path fill="#F1C1B6" d="M187.922,364.603c0.016-0.964,0.031-1.932,0.045-2.899c0.567-0.203,1.458-0.244,1.647-0.628
			c0.88-1.786,2.43-1.36,3.864-1.397c1.434-0.039,2.4,0.228,1.965,2.086c-0.258,1.095,0.677,1.099,1.442,0.947
			c0.583-0.121,1.097-0.133,1.397,0.46c0.301,0.594-0.146,0.988-0.425,1.449c-0.609,1.025-1.559,1.317-2.61,1.15
			C192.804,365.384,190.249,365.713,187.922,364.603z"/>
		<path fill="#F2C0B6" d="M145.449,361.365c0.012,1.202,0.023,2.402,0.037,3.604c-2.145,0.245-4.284,0.515-6.43,0.713
			c-1.03,0.096-2.165,0.519-2.949-0.666c-0.854-1.292-0.617-1.945,0.912-2.078c0.92-0.078,1.381-0.3,1.14-1.354
			c-0.364-1.583,0.449-2.001,1.916-1.927c1.492,0.077,3-0.123,4.057,1.299C144.431,361.362,144.963,361.361,145.449,361.365z"/>
		<path fill="#4691AC" d="M104.302,340.938c0.653-0.022,1.303-0.045,1.954-0.069c0.731-0.46,1.414-0.292,2.083,0.139
			c0.409,0.325,0.767,0.692,0.92,1.216c1.57,1.31,0.897,3.124,1.068,4.751c-2.096,3.748-4.079,4.394-7.89,2.362
			c-0.909-0.485-1.008,0.196-1.417,0.514c-0.365-0.374-0.3-0.765-0.038-1.164c0.085-0.313,0.29-0.646,0.239-0.938
			C100.531,343.778,100.9,342.939,104.302,340.938z"/>
		<path fill="#3C4042" d="M218.01,327.449c-4.102-0.511-8.198-1.062-12.306-1.512c-1.005-0.114-1.216-0.507-1.147-1.419
			c0.226-3.022,0.202-3.054,3.292-2.671c3.828,0.477,7.652,1.009,11.478,1.511c-0.459,0.719-2.064,0.719-1.349,2.164
			c0.2,0.565,0.886,0.83,0.939,1.492C218.731,327.402,218.269,327.211,218.01,327.449z"/>
		<path fill="#C1EAE8" d="M196.753,322.121c-1.11,2.914-3.103,5.471-3.563,8.65c-1.515-1.786-3.817-2.016-5.78-2.919
			c1.232-2.691,2.467-5.379,3.7-8.066C193.214,320.028,195.152,320.669,196.753,322.121z"/>
		<path fill="#D03840" d="M210.286,344.904c3.545,1.11,7.083,2.243,10.638,3.313c0.873,0.267,1.06,0.672,0.712,1.473
			c-0.214,0.493-0.401,1.014-0.489,1.539c-0.223,1.327-0.995,1.408-2.066,1.045c-3.518-1.196-7.041-2.368-10.562-3.554
			c-0.114-0.404-0.683-0.568-0.573-1.097c0.221-0.938,0.39-1.89,1.026-2.668C209.435,345.536,209.86,345.212,210.286,344.904z"/>
		<path fill="#41A2C2" d="M231.855,339.842c-3.825,1.085-7.667,2.105-11.46,3.288c-1.389,0.436-1.766-0.239-1.814-1.271
			c-0.048-1.001-1.553-2.386,0.552-2.955c3.579-0.973,7.173-1.895,10.759-2.832C231.192,336.993,231.171,338.599,231.855,339.842z"
			/>
		<path fill="#3D494B" d="M152.316,293.682c0.461,2.25,0.851,4.519,1.404,6.748c0.291,1.172,0.151,1.728-1.178,1.912
			c-1.666,0.229-3.297,0.688-4.948,1.041c-0.562,0.117-1.146,0.15-1.26-0.598c-0.479-3.181-1.716-6.229-1.647-9.503
			c0.347-0.113,0.538,0.095,0.711,0.341c0.344,1.535,1.326,1.86,2.718,1.463c0.514-0.147,1.037-0.284,1.576-0.318
			c0.422-0.055,0.857-0.033,1.242-0.257c0.41-0.172,0.597-0.585,0.911-0.858C152.01,293.556,152.169,293.564,152.316,293.682z"/>
		<path fill="#B1B1B3" d="M218.984,326.982c-0.506-0.359-1.523-0.064-1.457-1.149c-0.227-2.303-0.163-2.404,2.01-2.123
			c1.863,0.242,3.797,0.1,5.56,0.95c0.3-0.233,1.019-0.297,0.863-0.098c-0.93,1.19-0.339,2.529-0.607,3.757
			c-1.443-0.608-3-0.605-4.517-0.82C220.192,327.414,219.482,327.579,218.984,326.982z"/>
		<path fill="#B5AEAD" d="M209.011,345.063c0.082,1.073-0.239,2.014-0.916,2.846c-2.636-0.162-5-1.355-7.516-1.98
			c0.688-0.892,0.934-1.962,1.225-3.018C204.445,342.833,206.734,343.93,209.011,345.063z"/>
		<path fill="#ABB2B8" d="M238.284,334.352c0.01,1.07,0.361,2.034,0.901,2.941c-2.146,1.038-4.5,1.38-6.767,2.021
			c-0.994,0.281-1.414-0.32-1.53-1.1c-0.106-0.752-0.959-1.793,0.398-2.227C233.574,335.26,235.843,334.417,238.284,334.352z"/>
		<path fill="#C47442" d="M140.635,316.927c-0.391,0.268-0.783,0.533-1.173,0.802c-0.424,0.004-0.714-0.241-0.987-0.524
			c-0.71-0.989-1.619-0.671-2.545-0.41c-1.675,0.467-3.174,1.496-4.981,1.546c-0.305-0.067-0.523-0.249-0.676-0.518
			c-0.062-0.211,0.005-0.365,0.205-0.455c0.124,0.004,0.233-0.034,0.329-0.113c0.431-0.87,0.696-1.852,1.626-2.382
			c0.152-0.231,0.304-0.464,0.456-0.691c1.52-1.184,2.733-0.226,3.969,0.569c1.357,0.461,2.716,0.92,4.073,1.379
			C141.304,316.57,141.244,316.851,140.635,316.927z"/>
		<path fill="#49BECD" d="M187.41,327.853c2.465-0.306,5.392,1.172,5.78,2.919c-0.466,1.16-1.214,1.489-2.374,0.9
			c-0.709-0.361-1.47-0.637-2.227-0.9C187.076,330.236,186.589,329.317,187.41,327.853z"/>
		<path fill="#4F4231" d="M116.937,293.971c0.045,0.633-0.235,0.801-0.801,0.564c-0.68,0.203-0.94-0.397-1.338-0.711
			c-0.419-0.334-0.851-0.465-1.301-0.142c-1.156,0.828-2.32,1.649-3.38,2.602c-0.445,0.397-0.582,0.899-0.289,1.47
			c0.281,0.532,0.667,1.039,0.471,1.708c-0.278,0.138-0.555,0.276-0.831,0.413c-0.396,0.025-0.562-0.235-0.688-0.552
			c-1.646-2.196-1.515-3.03,0.73-4.742c0.585-0.445,1.168-0.898,1.745-1.355C114.301,290.811,114.625,290.854,116.937,293.971z"/>
		<path fill="#4B6571" d="M238.284,334.352c-2.009,0.547-4.007,1.148-6.029,1.633c-1.134,0.271-1.527,0.686-1.223,1.942
			c0.357,1.47,1.214,1.099,2.116,0.88c2.016-0.496,4.027-1.012,6.039-1.514c0.068,0.683-0.466,0.713-0.909,0.833
			c-2.14,0.571-4.281,1.144-6.422,1.716c-1.668-0.729-1.208-2.568-1.965-3.77c2.532-1.1,5.277-1.473,7.889-2.307
			C238.272,333.608,238.313,333.981,238.284,334.352z"/>
		<path fill="#18212A" d="M179.728,304.679c-0.166,0.274-0.274,0.708-0.513,0.803c-2.491,0.945-4.023-1.158-5.896-2.034
			c-1.268-0.597-0.524-1.85-0.078-2.819c0.163-0.134,0.332-0.138,0.507-0.027c1.395,1.64,3.571,2.029,5.232,3.242
			C179.294,304.065,179.583,304.309,179.728,304.679z"/>
		<path fill="#DCBEB3" d="M174.819,336.496c-0.299-0.817,0.609-2.035-0.825-2.475c-0.087-2.054,1.755-2.821,2.765-4.142
			c0.294-1.866,0.229-3.737,0.092-5.61c0.545,0.546,0.542,1.3,0.414,1.909c-0.374,1.771,1.116,3.235,0.933,4.712
			c-0.178,1.475-2.585,2.007-2.633,3.979C175.553,335.423,175.08,335.958,174.819,336.496z"/>
		<path fill="#E9BFC4" d="M162.561,340.958c2.188,1.51,4.534,0.684,6.833,0.435c0.447-0.047,0.874-0.296,1.311-0.45
			c0.01,0.523,0.018,1.045,0.025,1.568c-1.21,0.038-2.423,0.079-3.634,0.116c-1.519,0.978-3.023,0.925-4.515-0.059l0.014-0.072
			C162.583,341.98,162.572,341.467,162.561,340.958z"/>
		<path fill="#343F78" d="M100.982,348.686c0.012,0.388,0.023,0.774,0.038,1.164c-1.156,0.797-2.334,1.558-3.452,2.403
			c-0.473,0.358-0.795,0.431-1.155-0.064c-0.215-0.292-0.364-0.659-0.007-0.87C97.92,350.424,99.033,348.821,100.982,348.686z"/>
		<path fill="#1A2934" d="M178.445,291.191c2.683-0.421,4.473,1.144,6.221,2.799c0.149,0.378-0.044,0.581-0.366,0.719
			c-2.278-0.389-4.238-1.422-5.958-2.942C178.262,291.551,178.295,291.363,178.445,291.191z"/>
		<path fill="#47BFC5" d="M196.753,322.121c-2.01-0.461-3.774-1.53-5.644-2.338c1.887-0.558,3.646,0.12,5.395,0.634
			C197.579,320.735,196.725,321.539,196.753,322.121z"/>
		<path fill="#3B5D6C" d="M184.151,294.521c0.171-0.176,0.344-0.352,0.515-0.53c0.458,0.408,0.287,0.851,0.062,1.281
			c-1.648,3.145-3.031,6.432-5,9.408c-0.324-0.04-0.671-0.009-0.874-0.349c0.645-1.466,1.482-2.832,2.11-4.307
			C182.054,298.205,182.748,296.158,184.151,294.521z"/>
		<path fill="#993D4A" d="M209.011,345.063c-2.401-0.717-4.802-1.438-7.207-2.152c-0.194-0.741,0.224-0.834,0.764-0.651
			c2.577,0.869,5.146,1.763,7.719,2.645C209.908,345.335,209.526,345.734,209.011,345.063z"/>
		<path fill="#4C5759" d="M145.1,293.771c-0.138-0.162-0.275-0.326-0.414-0.489c1.979-0.924,4.16-1.039,6.251-1.5
			c1.582-0.345,1.077,1.141,1.379,1.9c-0.141,0.004-0.286,0.006-0.43,0.011c-1.063-0.603-2.139-0.439-3.266-0.163
			C147.476,293.814,146.32,294.422,145.1,293.771z"/>
		<path fill="#813B39" d="M200.581,345.929c2.662,0.065,5.019,1.294,7.516,1.98c0.013,0.335,0.954,0.188,0.425,0.813
			C205.855,347.849,203.063,347.333,200.581,345.929z"/>
		<path fill="#EBCAC1" d="M156.936,329.028c-0.444,1.396,0.507,2.519,0.741,3.782c-1.339-0.224-2.286-0.916-2.388-2.331
			c-0.073-1.024,0.582-1.594,1.568-1.788C156.956,328.789,156.981,328.899,156.936,329.028z"/>
		<path fill="#1D2123" d="M225.097,324.66c-1.746-0.204-3.533-0.239-5.229-0.65c-1.763-0.429-2.369,0.182-2.341,1.824
			c-0.654-2.228-0.643-2.24,1.799-2.473c1.6,0.176,3.202,0.361,4.804,0.513C224.656,323.925,225.046,324.062,225.097,324.66z"/>
		<path fill="#EBE1D2" d="M108.78,299.323c0.23,0.187,0.458,0.367,0.686,0.552c-0.345,1.604-2.709,1.677-2.69,3.555
			C105.794,301.255,107.388,300.34,108.78,299.323z"/>
		<path fill="#2E3137" d="M218.984,326.982c1.726,0.17,3.456,0.33,5.179,0.525c0.506,0.059,1.115,0.064,1.188,0.812
			c-2.447-0.292-4.896-0.577-7.342-0.87C218.335,327.296,218.659,327.138,218.984,326.982z"/>
		<path fill="#9BD2E0" d="M195.404,315.17c0.62,0.247,1.599,0.162,1.737,1.205c0.056,0.423-0.274,0.865-0.732,0.674
			c-0.726-0.297-1.879-0.101-1.935-1.32C194.451,315.279,194.824,315.041,195.404,315.17z"/>
		<path fill="#E9ECE7" d="M130.479,317.367c-0.015,0.131-0.002,0.255,0.039,0.381c0.345,1.391-0.863,2.015-1.455,2.941
			c-0.009,0.232-0.02,0.468-0.03,0.702C127.749,319.823,128.47,317.822,130.479,317.367z"/>
		<path fill="#FBE3D4" d="M136.861,314.75c-1.347-0.022-2.533-1.167-3.969-0.569C134.268,312.601,135.928,312.836,136.861,314.75z"
			/>
		<path fill="#40606D" d="M173.676,300.608c-0.143,0.008-0.29,0.012-0.435,0.02c0.873-1.659,1.748-3.314,2.621-4.975
			c0.158-0.156,0.333-0.173,0.526-0.068c0.452,1.206-0.652,1.976-0.852,3.006C174.965,299.306,174.956,300.544,173.676,300.608z"/>
		<path fill="#F3ECCA" d="M143.819,323.028c-0.891-1.227-1.313-2.631-1.567-4.103C144.333,319.696,143.744,321.487,143.819,323.028z
			"/>
		<path fill="#B6C6C3" d="M105.089,332.409c0.322,1.353,0.105,2.27-1.601,1.991C103.908,333.646,103.543,332.257,105.089,332.409z"
			/>
		<path fill="#6793B0" d="M125.905,351.925c-0.13-1.063,0.433-1.319,1.33-1.095c0.907,0.227,1.797,0.517,2.694,0.777
			c0.404,0.385,0.209,0.655-0.167,0.895c-0.278,0.077-0.556,0.05-0.833,0.007C127.908,352.387,126.99,351.726,125.905,351.925z"/>
		<path fill="#F0E2D1" d="M132.435,314.87c-0.445,0.86-0.738,1.826-1.628,2.381C130.83,316.105,130.342,314.608,132.435,314.87z"/>
		<path fill="#374D5E" d="M176.331,295.698c-0.155-0.014-0.312-0.031-0.468-0.045c0.717-1.566,1.289-3.229,2.583-4.462
			c0.01,0.163,0.02,0.325,0.029,0.488C178.457,293.389,177.9,294.815,176.331,295.698z"/>
		<path fill="#B5E2F4" d="M125.905,351.925c1.061-1.396,2.064,0.272,3.102,0.06c0.579,0.489,0.404,0.803-0.265,0.813
			c-0.726,0.009-1.376-0.497-2.133-0.421C126.294,352.356,126.04,352.233,125.905,351.925z"/>
		<path fill="#E1C17A" d="M140.635,316.927c0.102-0.264,0.201-0.531,0.298-0.798c0.904,0.729,1.396,1.64,1.228,2.835
			C140.975,318.791,141.635,317.24,140.635,316.927z"/>
		<path fill="#5B87A5" d="M126.61,352.377c0.576-0.895,1.163,0.067,1.745-0.006c0.284-0.035,0.847,0.447,0.655-0.387
			c0.184,0.131,0.369,0.26,0.557,0.388c0.241,0.497,0.275,0.884-0.459,0.873C128.276,352.954,127.444,352.666,126.61,352.377z"/>
		<path fill="#8FB5C9" d="M129.107,353.245c0.338-0.197,0.417-0.522,0.459-0.873c0.292-0.173,0.371-0.447,0.364-0.765
			c0.711,0.151,1.132,0.594,0.809,1.284C130.414,353.583,129.805,353.827,129.107,353.245z"/>
		<path fill="#2E1E19" d="M167.509,349.094c0.236,2.01,0.428,4.021,0.729,6.021c0.166,1.117-0.155,2.079-1.247,2.089
			c-1.1,0.009-1.675-0.827-1.508-2.109c0.282-2.146,0.404-4.301,0.599-6.454c0.067-0.733,0.261-1.495-0.506-2.015
			c-1.132-0.655-1.022-1.493-0.281-2.349c0.584-0.675,1.334-1.027,2.147-0.429c0.795,0.588,1.545,1.46,0.862,2.398
			C167.637,347.165,167.758,348.146,167.509,349.094z"/>
		<path fill="#FFFFFF" d="M167.509,349.094c-0.002-0.781-0.964-1.62,0.092-2.339c1.265-0.854,0.417-1.563-0.177-2.218
			c-0.288-0.319-0.56-1.188-1.185-0.585c-0.725,0.696-1.672,1.481-0.665,2.671c-1.45,0.311-2.063-0.58-2.43-1.746
			c-0.237-0.755-0.38-1.539-0.566-2.309c1.504,0.021,3.009,0.038,4.514,0.059c0.234,0.116,0.463,0.302,0.706,0.328
			c2.694,0.305,2.69,0.3,2.208,2.936c-0.042,0.241,0.09,0.713-0.188,0.659C167.601,346.121,168.271,348.25,167.509,349.094z"/>
		<path fill="#4A4A49" d="M120.251,350.326c-2.868,0.195-5.431-1.102-8.116-1.762c-1.078-0.261-0.399-0.85,0.304-1.06
			c2.531-0.065,4.868,0.774,7.213,1.56C120.23,349.258,120.526,349.68,120.251,350.326z"/>
		<path fill="#464646" d="M113.265,342.568c-0.117-0.615,0.124-0.964,0.751-0.804c2.479,0.638,4.951,1.311,7.424,1.979
			c0.443,0.116,0.392,0.473,0.343,0.81c-0.185,0.203-0.436,0.414-0.68,0.371C118.383,344.501,115.604,344.265,113.265,342.568z"/>
		<path fill="#434343" d="M105.607,337.953c-0.074-0.857,0.65-0.737,1.107-0.843c2.032-0.484,4.072-0.936,6.122-1.347
			c0.459-0.093,1.199-0.546,1.374,0.212c0.188,0.806-0.715,0.577-1.147,0.772c-0.3,0.138-0.652,0.163-0.983,0.236
			C110.013,337.906,108.004,339.229,105.607,337.953z"/>
		<path fill="#444444" d="M113.631,344.281c-0.502-0.089-0.872-0.294-0.787-0.899c0.841-0.575,1.678-0.174,2.499,0.038
			c1.989,0.51,4.013,0.891,5.934,1.646c0.259,0.635,0.273,1.136-0.627,1.126C118.152,346.144,115.762,345.686,113.631,344.281z"/>
		<path fill="#444444" d="M120.606,348.265c-0.018,0.254-0.035,0.507-0.053,0.764c-0.173,0.24-0.434,0.343-0.692,0.256
			c-2.462-0.77-5.075-1.033-7.432-2.162c-0.383-0.154-0.36-0.485-0.36-0.811c0.189-0.196,0.429-0.423,0.676-0.39
			C115.49,346.277,118.296,346.448,120.606,348.265z"/>
		<path fill="#414242" d="M120.237,346.543c0.23,0.05,0.458,0.102,0.687,0.15c0.624,0.948-0.286,1.156-0.717,1.029
			c-2.585-0.761-5.391-0.805-7.755-2.302c-0.096-0.62,0.196-0.851,0.787-0.784C115.638,345.025,118.03,345.448,120.237,346.543z"/>
		<path fill="#5E5E5E" d="M108.363,341.378c-0.704-0.171-1.405-0.34-2.107-0.508c-0.047-0.632,0.415-0.714,0.867-0.812
			c0.731-0.942,1.9-0.796,2.863-1.167c0.532-0.131,1.087-0.24,1.607-0.151c0.415,0.073,1.165,0.122,0.665,0.938
			c-0.762,1.081-2.318,0.349-3.109,1.361C109.085,341.619,108.782,341.631,108.363,341.378z"/>
		<path fill="#434444" d="M107.145,339.736c-0.643,0.091-1.034-0.198-1.212-0.808c2.032-1.134,4.302-1.312,6.536-1.623
			c1.837,0.449-0.756,0.76-0.037,1.177c-0.713,0.431-1.483,0.65-2.318,0.645C109.164,339.521,108.142,339.558,107.145,339.736z"/>
		<path fill="#575351" d="M108.642,334.813c-0.05,0.006-0.401-0.005-0.463-0.445c-0.057-0.418,0.271-0.585,0.607-0.665
			c1.376-0.303,2.759-0.603,4.144-0.881c0.315-0.064,0.709-0.104,0.745,0.394c0.029,0.397-0.206,0.614-0.576,0.693
			C111.714,334.193,110.328,334.473,108.642,334.813z"/>
		<path fill="#D3D3D3" d="M112.451,345.42c2.387,0.644,4.764,1.314,7.164,1.903c0.479,0.119,1.447,0.748,1.308-0.63
			c1.062,0.76-0.041,1.085-0.319,1.57c-2.849-0.63-5.591-1.744-8.537-1.953C112.195,346.015,112.325,345.718,112.451,345.42z"/>
		<path fill="#51524F" d="M117.822,339.764c1.4,0.386,2.834,0.783,4.271,1.169c0.293,0.082,0.5,0.221,0.436,0.549
			c-0.083,0.422-0.384,0.503-0.763,0.405c-1.442-0.364-2.886-0.729-4.325-1.104c-0.266-0.073-0.487-0.248-0.431-0.578
			C117.088,339.747,117.444,339.763,117.822,339.764z"/>
		<path fill="#D9DAD9" d="M112.429,347.122c2.708,0.634,5.416,1.269,8.125,1.905c0.031,0.461,0.131,0.94-0.301,1.299
			c-0.123-1.191-1.231-0.867-1.876-1.091c-1.942-0.679-4.064-0.777-5.935-1.73C112.429,347.378,112.425,347.25,112.429,347.122z"/>
		<path fill="#D5D5D5" d="M121.279,345.067c-2.178-0.061-4.158-1.021-6.269-1.403c-0.72-0.132-1.403-0.488-2.164-0.282
			c0.139-0.271,0.279-0.541,0.42-0.813c2.865,0.555,5.59,1.704,8.52,1.985C121.616,344.728,121.447,344.895,121.279,345.067z"/>
		<path fill="#CBCCCC" d="M120.237,346.543c-2.363-0.528-4.737-1.008-6.998-1.907c0.132-0.116,0.263-0.236,0.394-0.354
			c2.369,0.533,4.76,0.987,7.021,1.912C120.515,346.312,120.375,346.428,120.237,346.543z"/>
		<path fill="#CDCDCD" d="M112.469,337.306c-2.092,0.887-4.392,0.938-6.536,1.623c-0.108-0.324-0.217-0.651-0.327-0.976
			c2.25,0.279,4.278-0.91,6.475-0.966C112.211,337.09,112.341,337.197,112.469,337.306z"/>
		<path fill="#3C4B49" d="M108.363,341.378c0.308-0.006,0.619-0.005,0.787-0.34c0.836,0,2.271-0.548,2.345,0.223
			c0.086,0.923-1.424,0.679-2.235,0.962C108.724,342.193,108.389,341.948,108.363,341.378z"/>
		<path fill="#D7D7D7" d="M107.145,339.736c0.833-0.708,1.902-0.534,2.865-0.766c0.14,0.089,0.186,0.173,0.139,0.26
			c-0.048,0.082-0.096,0.123-0.142,0.123c-0.894,0.521-1.911,0.521-2.883,0.702C107.119,339.949,107.125,339.84,107.145,339.736z"/>
		<path fill="#F3F3F3" d="M110.007,339.355c0-0.126,0-0.253,0.003-0.383c0.806-0.163,1.614-0.324,2.421-0.488
			c0.101,0.421,0.717,0.916-0.173,1.193C111.66,338.505,110.727,339.667,110.007,339.355z"/>
		<path fill="#E2D8D3" d="M169.879,371.497c-1.993-0.252-3.988-0.206-5.983-0.033c-0.389-0.231-0.775-0.463-1.162-0.693
			c2.767-0.766,5.539-0.728,8.314-0.038C170.66,370.99,170.27,371.244,169.879,371.497z"/>
		<path fill="#F7BEAE" d="M176.759,329.88c0.348,0.268,0.605,0.882,0.265,0.967c-1.748,0.413-2.021,2.128-3.03,3.175
			c-0.144,0.877-0.543,1.404-1.521,1.026c-3.777-1.472-7.562-1.491-11.333-0.004c-0.738,0.291-0.97-0.188-1.266-0.627
			c-1.021-1.513-1.768-3.152-2.219-4.924c0.448-2.18,0.911-4.362,1.334-6.55c0.154-0.795,0.533-1.111,1.373-1.111
			c4.336-0.004,8.671-0.032,13.007-0.111c1.025-0.021,1.365,0.396,1.609,1.345C175.562,325.336,175.673,327.737,176.759,329.88z"/>
		<path fill="#AB7755" d="M121.001,299.756c0.604-0.294,1.232-0.55,1.645-1.125c0.253,0.737,2.508,0.811,0.639,2.263
			C121.525,302.269,121.367,300.917,121.001,299.756z"/>
		<path fill="#C58860" d="M112.838,306.265c0.524-0.271,0.964-0.634,1.263-1.153c0.622,0.406,1.224,0.833,1.552,1.998
			c-0.898-0.769-1.573-0.954-2.351-0.266C112.951,307.154,112.849,306.597,112.838,306.265z"/>
		<path fill="#E8EDE8" d="M110.299,299.462c-0.263-0.384-0.478-0.817-0.803-1.141c-1.086-1.069-0.669-1.857,0.388-2.604
			c0.658-0.465,1.274-0.987,1.907-1.494c2.399-1.904,2.399-1.904,4.347,0.313C114.808,296.906,112.403,298.006,110.299,299.462z"/>
		<path fill="#945E4B" d="M164.775,336.545c2.106-0.054,3.698-0.091,5.173-0.774C168.62,337.074,167.757,337.225,164.775,336.545z"
			/>
		<path fill="#E9ECE7" d="M130.783,318.07c1.88-0.668,3.779-1.285,5.632-2.019c1.14-0.455,1.894-0.184,2.446,0.855
			c-0.233,0.302-0.55,0.468-0.907,0.565c-0.588,0.175-1.057,0.581-1.591,0.859c-0.396,0.156-0.695,0.459-1.047,0.687
			c-0.531,0.021-1.064,0-1.564,0.216c-0.22,0.153-0.423,0.382-0.299,0.618c0.214,0.41,0.534,0.047,0.806,0.006
			c0.398-0.18,0.793-0.367,1.208-0.508c0.658-0.246,1.367-0.212,2.039-0.394c0.479,0.02,0.959,0.028,1.081,0.641
			c-0.358,0.197-0.485,0.522-0.519,0.904c-0.329,0.748-0.885,1.275-1.594,1.657c-1.774,0.227-3.315-0.54-4.889-1.16
			C130.894,320.141,130.145,319.295,130.783,318.07z"/>
		<path fill="#BE7945" d="M130.783,318.07c-0.05,1.064,0.932,1.844,0.804,2.929c-0.841-0.105-1.682-0.208-2.522-0.31
			c-0.189-1.315,1.255-1.818,1.455-2.941C130.607,317.854,130.696,317.963,130.783,318.07z"/>
		<path fill="#9B97BF" d="M136.129,318.085c0.339-0.618,0.948-0.876,1.533-1.173c0.748,0.375,0.628,1.366,1.285,1.805
			c-0.055,0.322,0.057,0.711-0.362,0.881c-0.442-0.104-0.886-0.21-1.329-0.316C136.922,318.844,135.724,319.221,136.129,318.085z"/>
		<path fill="#EFECF9" d="M138.948,318.717c-1.375,0.073-0.897-1.171-1.284-1.805c0.398,0,0.797-0.002,1.198-0.003
			c0.199,0.273,0.399,0.548,0.6,0.821C139.292,318.059,139.119,318.388,138.948,318.717z"/>
		<path fill="#DEB96E" d="M136.476,322.159c0.333-0.744,0.792-1.364,1.595-1.657C138.271,321.759,137.843,322.409,136.476,322.159z"
			/>
		<path fill="#F5E8E0" d="M193.135,360.495c0.476,0.143,1.301-0.266,1.363,0.467c0.071,0.848-0.775,0.766-1.36,0.766
			c-0.583-0.004-1.432,0.085-1.365-0.766C191.833,360.223,192.659,360.64,193.135,360.495z"/>
		<path fill="#E3E8DA" d="M140.56,360.45c0.568,0.191,1.475-0.267,1.379,0.706c-0.058,0.589-0.689,0.944-1.354,0.942
			c-0.749,0-1.463-0.396-1.421-1.087C139.217,360.161,140.15,360.711,140.56,360.45z"/>
		<path fill="#E4F4F6" d="M105.616,342.336c1.546,0.081,3.328,2.035,3.257,3.569c-0.085,1.84-1.693,3.298-3.504,3.173
			c-1.84-0.123-3.242-1.733-3.114-3.571C102.372,343.81,104.026,342.252,105.616,342.336z"/>
		<path fill="#E4E2E1" d="M209.686,322.935c1.865,0.235,3.469,0.488,5.082,0.634c1.028,0.095,1.348,0.509,1.249,1.553
			c-0.118,1.251-0.833,1.152-1.698,1.022c-1.534-0.227-3.071-0.468-4.617-0.618c-0.957-0.088-1.231-0.463-1.141-1.424
			C208.655,323.138,208.958,322.719,209.686,322.935z"/>
		<path fill="#CBCDCD" d="M207.904,323.692c0,0.737-0.271,1.245-0.996,1.313c-0.732,0.072-1.132-0.408-1.199-1.056
			c-0.068-0.683,0.36-1.161,1.025-1.243C207.44,322.623,207.847,323.032,207.904,323.692z"/>
		<path fill="#E1F9F9" d="M190.284,324.519c-0.095-1.313,0.437-2.454,1.739-2.509c1.357-0.063,2.43,0.832,2.66,2.309
			c0.17,1.097-1.233,2.616-2.294,2.611C191.102,326.922,190.314,326.018,190.284,324.519z"/>
		<path fill="#E7E0D9" d="M211.431,346.091c2.049,0.684,3.968,1.307,5.878,1.967c0.739,0.255,0.575,0.817,0.31,1.325
			c-0.249,0.471-0.202,1.312-1.157,0.995c-1.851-0.623-3.708-1.228-5.563-1.843c-0.696-0.228-0.76-0.683-0.419-1.259
			C210.749,346.824,210.662,346.027,211.431,346.091z"/>
		<path fill="#83170A" d="M219.329,351.128c-0.745-0.041-1.232-0.298-1.246-0.929c-0.022-0.841,0.565-1.157,1.324-1.142
			c0.611,0.012,1.021,0.292,0.983,0.98C220.347,350.798,219.822,351.023,219.329,351.128z"/>
		<path fill="#DBE7EA" d="M223.724,341.216c-1.139,0.116-1.48-0.278-1.602-0.986c-0.114-0.681,0.005-1.239,0.734-1.439
			c1.755-0.479,3.519-0.928,5.283-1.375c0.753-0.194,1.172,0.158,1.256,0.898c0.066,0.586,0.272,1.261-0.577,1.499
			C227.003,340.316,225.182,340.815,223.724,341.216z"/>
		<path fill="#023A6D" d="M220.351,339.716c0.768,0,1.29,0.261,1.314,0.994c0.024,0.719-0.491,1.062-1.132,1.151
			c-0.739,0.106-1.125-0.349-1.179-1.012C219.292,340.134,219.762,339.794,220.351,339.716z"/>
		<path fill="#E0E9EA" d="M145.1,293.771c1.651-0.354,3.345-0.582,4.938-1.108c1.188-0.396,1.523,0.171,1.849,1.03
			c0.011,0.554,0.215,1.222-0.711,1.241c-0.857,0.162-1.054-1.708-2.088-0.623c0.236,0.231,0.998,0.177,0.801,0.948
			c-0.717,0.153-1.464,0.217-2.144,0.471C145.815,296.443,145.087,295.636,145.1,293.771z"/>
		<path fill="#B4C2C4" d="M150.796,299.746c0.04-0.728-0.553-1.777,0.783-1.893c1.234-0.104,0.828,1.051,0.99,1.633
			c0.301,1.078,1.033,2.628-1.311,2.256C150.361,301.25,150.979,300.403,150.796,299.746z"/>
		<path fill="#B5C1C2" d="M149.941,297.005c0.001,0.499-0.292,0.789-0.745,0.719c-0.711-0.113-1.306-0.149-1.938,0.38
			c-0.337,0.284-0.917,0.072-1.053-0.53c-0.074-0.324-0.139-0.806,0.217-0.873c1.017-0.196,2-0.704,3.067-0.504
			C149.837,296.261,149.947,296.647,149.941,297.005z"/>
		<path fill="#626E6F" d="M150.796,299.746c0.506,0.582,0.358,1.321,0.463,1.997c-0.156,0.032-0.311,0.067-0.469,0.098
			c-0.621-0.396-1.157-0.353-1.569,0.309c-0.141,0.037-0.281,0.077-0.422,0.11c-0.602-0.253-0.83-0.766-0.932-1.363
			c-0.306-0.387-1.007-0.106-1.188-0.705c0.523-0.433,0.923-0.961,1.179-1.589c0.267-0.024,0.534-0.044,0.801-0.063
			c0.625,0.299,1.123,0.767,1.65,1.201C150.468,300.123,150.631,300.051,150.796,299.746z"/>
		<path fill="#879091" d="M149.888,295.26c-0.488-0.623-1.894-0.231-1.742-1.297c0.044-0.323,1.402-0.605,2.174-0.65
			c1.252-0.076,0.45,1.131,0.857,1.621C150.831,295.37,150.361,295.321,149.888,295.26z"/>
		<path fill="#B8C3C5" d="M147.865,300.897c0.824,0.105,0.843,0.761,0.932,1.365c-0.574,0.412-1.213,0.753-1.644-0.084
			C146.834,301.555,147.047,301.003,147.865,300.897z"/>
		<path fill="#B2BEBF" d="M150.308,299.74c-1.034,0.264-1.765,0.111-1.65-1.201C150.021,297.822,150.558,298.238,150.308,299.74z"/>
		<path fill="#B6C2C3" d="M149.22,302.149c-0.026-0.614-0.427-1.402,0.665-1.518c0.957-0.102,0.796,0.661,0.905,1.209
			C150.34,302.315,149.792,302.293,149.22,302.149z"/>
		<path fill="#B9C6C7" d="M151.056,297.339c-0.633,0-0.723-0.464-0.766-0.933c-0.063-0.675,0.435-0.711,0.904-0.729
			c0.611-0.023,0.764,0.376,0.765,0.896C151.959,297.185,151.575,297.341,151.056,297.339z"/>
		<path fill="#B0BDBD" d="M147.857,298.603c0.99,1.554,0.212,1.801-1.179,1.589C146.413,299.176,146.721,298.579,147.857,298.603z"
			/>
		<path fill="#8CD0F0" d="M173.676,300.608c0.438-0.7,0.879-1.397,1.316-2.1c0.496-0.288,0.934-0.205,1.328,0.193
			c0.805,0.834,0.968,0.052,1.221-0.492c0.065-0.178,0.152-0.34,0.254-0.501c0.238-0.307,0.537-0.508,0.937-0.538
			c0.285,0.033,0.521,0.167,0.738,0.345c0.205,0.184,0.376,0.393,0.521,0.627c0.103,0.151,0.191,0.307,0.274,0.473
			c0.175,0.7,1.381,0.737,1.12,1.726c-0.772,1.374-0.903,3.154-2.534,3.986c-1.431-0.746-2.854-1.509-4.295-2.237
			C173.932,301.774,173.298,301.504,173.676,300.608z"/>
		<path fill="#A2C8EC" d="M176.002,299.164c-0.12-0.555-0.565-0.603-1.01-0.654c0.445-0.933,0.891-1.873,1.336-2.812
			c0.715-1.339,1.43-2.68,2.144-4.02c1.892,0.947,3.785,1.894,5.676,2.841c-0.421,2.178-1.791,3.903-2.76,5.824
			c-0.417-0.752-1.879-0.585-1.652-1.895c0.855-0.184,1.53-0.487,1.007-1.563c-0.003-0.188,0.05-0.362,0.155-0.513
			c0.099-0.095,0.205-0.178,0.316-0.252c0.385-0.266,0.83-0.496,0.704-1.09c-0.032-0.146-0.152-0.256-0.296-0.235
			c-0.6,0.079-0.628,0.618-0.802,1.033c-0.054,0.125-0.097,0.252-0.153,0.373c-0.463,0.544-0.732,1.275-1.486,1.541
			c-0.104-0.138-0.209-0.271-0.313-0.405c-0.386-0.309-0.411-0.972-1.081-1.079c-0.188,0.538,0.5,0.892,0.304,1.403
			c-0.008,0.14-0.015,0.273-0.021,0.41C177.251,298.189,177.625,300.566,176.002,299.164z"/>
		<path fill="#EA908C" d="M167.466,330.2c0,0.723,0,1.06,0,1.398c0.004,0.672-0.144,1.254-0.996,1.146
			c-0.863-0.112-1.057-0.662-0.891-1.46c0.134-0.649,0.169-1.321,0.256-1.986c0.065-0.495-0.165-1.217,0.617-1.256
			c0.675-0.041,0.795,0.648,0.93,1.144C167.504,329.63,167.461,330.118,167.466,330.2z"/>
		<path fill="#7D5038" d="M173.897,328.084c-1.531,1.819-3.035,1.83-4.793,0.094c0.9-0.393,1.537,0.329,2.269,0.439
			C172.234,328.747,172.808,327.919,173.897,328.084z"/>
		<path fill="#73412C" d="M164.151,327.89c-1.54,1.736-2.986,1.598-4.551-0.327C161.201,327.877,162.591,328.985,164.151,327.89z"/>
		<path fill="#885041" d="M160.432,325.303c1.135-0.964,2.323-1.011,3.865,0.057C162.789,325.424,161.619,324.878,160.432,325.303z"
			/>
		<path fill="#844D3E" d="M169.585,325.124c1.119-0.916,2.25-0.856,3.386-0.046C171.844,325.111,170.714,325.006,169.585,325.124z"
			/>
		<path fill="#4B4B82" d="M133.644,318.535c0.6-0.043,1.247-0.268,1.661,0.426c0.595-0.011,0.646,0.257,0.366,0.704
			c-0.398,0.184-0.794,0.373-1.191,0.558C132.871,320.323,133.236,319.441,133.644,318.535z"/>
		<path fill="#474E87" d="M135.67,319.665c-0.123-0.235-0.244-0.471-0.366-0.704c0.331-0.24-0.569-1.636,0.826-0.876
			c-0.31,1.044,1.513,0.078,1.129,1.194C136.729,319.407,136.198,319.537,135.67,319.665z"/>
		<path fill="#979BC8" d="M133.644,318.535c0,0.703-0.103,1.454,0.836,1.688c-0.55,0.393-1.221,1.265-1.733,0.304
			C132.445,319.963,132.402,318.776,133.644,318.535z"/>
		<path fill="#56BDD4" d="M193.526,324.789c-0.043,0.907-0.385,1.501-1.331,1.428c-0.662-0.049-1.19-0.386-1.066-1.149
			c0.146-0.898,0.588-1.812,1.554-1.808C193.446,323.264,193.422,324.204,193.526,324.789z"/>
		<path fill="#2C4985" d="M178.092,297.667c-0.32-0.235-0.65-0.447-0.951-0.699c-0.803-0.672-0.152-1.382,0.233-1.699
			c0.806-0.668,0.534,0.565,0.635,0.553c1.521-0.164,1.187,0.67,0.86,1.518C178.608,297.447,178.35,297.555,178.092,297.667z"/>
		<path fill="#284580" d="M180.914,296.931c0.771-0.074,0.98,0.258,0.639,0.928c-0.401,0.798-0.91,1.326-1.818,0.593
			c-0.014-0.1-0.032-0.192-0.051-0.288C179.54,297.198,180.246,297.08,180.914,296.931z"/>
		<path fill="#23447D" d="M180.914,296.931c-0.41,0.411-0.819,0.823-1.229,1.233c-0.28-0.006-0.446-0.146-0.505-0.419
			c0.412-0.563,0.345-1.485,1.264-1.661c0.396-0.1,0.555,0.054,0.476,0.449C180.859,296.664,180.858,296.799,180.914,296.931z"/>
		<path fill="#3E5C9A" d="M176.002,299.164c0.493,0.26,0.938,0.533,1.071-0.378c0.067-0.471,0.243-1.072,0.997-0.712
			C177.489,300.308,177.377,300.366,176.002,299.164z"/>
		<path fill="#39588F" d="M180.92,296.533c-0.159-0.151-0.318-0.299-0.474-0.449c-0.144-1.029-0.113-2.044,1.236-2.053
			c0.439-0.002,1.361,0.249,1.183,1.053C182.659,296.025,182.147,296.832,180.92,296.533z"/>
		<path fill="#344F88" d="M180.558,293.837c-0.496,0.503-0.442,1.573-1.315,1.317c-0.467-0.137-1.487-0.252-1.239-1.201
			c0.138-0.523,0.331-1.311,1.09-1.211C179.697,292.826,180.327,293.137,180.558,293.837z"/>
	</g>
</g>
</svg>
